<mxfile host="app.diagrams.net" modified="2020-12-07T18:18:58.827Z" agent="5.0 (X11; Linux x86_64) AppleWebKit/537.36 (KHTML, like Gecko) Chrome/85.0.4183.121 Safari/537.36" etag="LHO0TND5SO3A53l5TIyN" version="13.10.9" type="github" pages="7">
  <diagram name="p01" id="DLQpAvPrtUbYdDvNZ_r8">
    <mxGraphModel dx="1422" dy="757" grid="1" gridSize="10" guides="1" tooltips="1" connect="1" arrows="1" fold="1" page="1" pageScale="1" pageWidth="1169" pageHeight="827" math="1" shadow="0">
      <root>
        <mxCell id="KzKFW0jnUTyGEeZzbuEv-0" />
        <mxCell id="KzKFW0jnUTyGEeZzbuEv-1" parent="KzKFW0jnUTyGEeZzbuEv-0" />
        <mxCell id="KzKFW0jnUTyGEeZzbuEv-2" value="&lt;font color=&quot;#006633&quot; face=&quot;garamond&quot;&gt;&lt;span style=&quot;font-size: 36px&quot;&gt;&lt;b&gt;Проективные отображения прямых&lt;/b&gt;&lt;/span&gt;&lt;/font&gt;" style="text;html=1;align=left;verticalAlign=middle;whiteSpace=wrap;rounded=0;" parent="KzKFW0jnUTyGEeZzbuEv-1" vertex="1">
          <mxGeometry x="40" y="39" width="920" height="20" as="geometry" />
        </mxCell>
        <mxCell id="KzKFW0jnUTyGEeZzbuEv-3" value="&lt;div&gt;&lt;/div&gt;&lt;b style=&quot;font-size: 28px ; font-family: &amp;#34;times new roman&amp;#34;&quot;&gt;Опр.&lt;/b&gt;&lt;span style=&quot;font-size: 28px ; font-family: &amp;#34;times new roman&amp;#34;&quot;&gt;&amp;nbsp;&lt;/span&gt;&lt;i style=&quot;font-size: 28px ; font-family: &amp;#34;times new roman&amp;#34;&quot;&gt;Отображение&amp;nbsp;&lt;/i&gt;&lt;span style=&quot;color: rgb(51 , 51 , 51) ; font-family: &amp;#34;u0000&amp;#34; ; font-size: 28px ; text-align: center ; background-color: rgb(255 , 255 , 255)&quot;&gt;&lt;i&gt;ψ&lt;/i&gt;&amp;nbsp;&lt;/span&gt;&lt;i style=&quot;font-size: 28px ; font-family: &amp;#34;times new roman&amp;#34;&quot;&gt;множества точек прямой l проективной плоскости&lt;/i&gt;&lt;span style=&quot;color: rgb(51 , 51 , 51) ; font-family: &amp;#34;u0000&amp;#34; ; font-size: 28px ; text-align: center ; background-color: rgb(255 , 255 , 255)&quot;&gt;&lt;br&gt;&lt;/span&gt;&lt;font face=&quot;Times New Roman&quot; style=&quot;font-size: 28px&quot;&gt;&lt;div&gt;&lt;i&gt;во множество точек другой прямой l&#39;&amp;nbsp; проективной плоскости называется&amp;nbsp;&lt;/i&gt;&lt;/div&gt;&lt;i&gt;&lt;font face=&quot;Times New Roman&quot;&gt;&lt;i&gt;проективным, если оно является взаимно-однозначным и сохраняет &lt;br&gt;двойное отношение точек на прямых&lt;/i&gt;&lt;/font&gt;&lt;/i&gt;&lt;/font&gt;" style="text;html=1;align=left;verticalAlign=middle;resizable=0;points=[];autosize=1;" parent="KzKFW0jnUTyGEeZzbuEv-1" vertex="1">
          <mxGeometry x="50" y="110" width="930" height="80" as="geometry" />
        </mxCell>
      </root>
    </mxGraphModel>
  </diagram>
  <diagram name="p02" id="YPdVXJu-xIlIaCmpYBs6">
    <mxGraphModel dx="1422" dy="757" grid="1" gridSize="10" guides="1" tooltips="1" connect="1" arrows="1" fold="1" page="1" pageScale="1" pageWidth="1169" pageHeight="827" math="1" shadow="0">
      <root>
        <mxCell id="uJIFPMCv4TthrZqJF3ER-0" />
        <mxCell id="uJIFPMCv4TthrZqJF3ER-1" parent="uJIFPMCv4TthrZqJF3ER-0" />
        <mxCell id="uJIFPMCv4TthrZqJF3ER-2" value="&lt;font color=&quot;#006633&quot; face=&quot;garamond&quot;&gt;&lt;span style=&quot;font-size: 36px&quot;&gt;&lt;b&gt;Перспективные отображения прямых&lt;/b&gt;&lt;/span&gt;&lt;/font&gt;" style="text;html=1;align=left;verticalAlign=middle;whiteSpace=wrap;rounded=0;" parent="uJIFPMCv4TthrZqJF3ER-1" vertex="1">
          <mxGeometry x="40" y="39" width="920" height="20" as="geometry" />
        </mxCell>
        <mxCell id="uJIFPMCv4TthrZqJF3ER-27" value="&lt;div&gt;&lt;/div&gt;&lt;b style=&quot;font-size: 28px ; font-family: &amp;#34;times new roman&amp;#34;&quot;&gt;Опр.&lt;/b&gt;&lt;span style=&quot;font-size: 28px ; font-family: &amp;#34;times new roman&amp;#34;&quot;&gt;&amp;nbsp;&lt;/span&gt;&lt;i style=&quot;font-size: 28px ; font-family: &amp;#34;times new roman&amp;#34;&quot;&gt;Отображение&amp;nbsp;&lt;/i&gt;&lt;span style=&quot;color: rgb(51 , 51 , 51) ; font-family: &amp;#34;u0000&amp;#34; ; font-size: 28px ; text-align: center ; background-color: rgb(255 , 255 , 255)&quot;&gt;&lt;i&gt;ψ&lt;/i&gt;&amp;nbsp;&lt;/span&gt;&lt;i style=&quot;font-size: 28px ; font-family: &amp;#34;times new roman&amp;#34;&quot;&gt;множества точек прямой l проективной плоскости&lt;/i&gt;&lt;span style=&quot;color: rgb(51 , 51 , 51) ; font-family: &amp;#34;u0000&amp;#34; ; font-size: 28px ; text-align: center ; background-color: rgb(255 , 255 , 255)&quot;&gt;&lt;br&gt;&lt;/span&gt;&lt;font face=&quot;Times New Roman&quot; style=&quot;font-size: 28px&quot;&gt;&lt;div&gt;&lt;i&gt;во множество точек другой прямой l&#39;&amp;nbsp; проективной плоскости называется&amp;nbsp;&lt;/i&gt;&lt;/div&gt;&lt;i&gt;&lt;font face=&quot;Times New Roman&quot;&gt;&lt;i&gt;перспективным с центром в точке&amp;nbsp;&lt;/i&gt;O&lt;/font&gt;&lt;/i&gt;&lt;/font&gt;&lt;span style=&quot;color: rgb(51 , 51 , 51) ; font-family: &amp;#34;u2000&amp;#34; ; font-size: 28px ; text-align: center ; background-color: rgb(255 , 255 , 255)&quot;&gt;∉ &lt;i&gt;l,&amp;nbsp;&lt;/i&gt;&lt;/span&gt;&lt;font face=&quot;Times New Roman&quot; style=&quot;font-size: 28px&quot;&gt;&lt;i&gt;&lt;font face=&quot;Times New Roman&quot;&gt;O&lt;/font&gt;&lt;/i&gt;&lt;/font&gt;&lt;span style=&quot;color: rgb(51 , 51 , 51) ; font-family: &amp;#34;u2000&amp;#34; ; font-size: 28px ; text-align: center ; background-color: rgb(255 , 255 , 255)&quot;&gt;∉&amp;nbsp;&lt;i&gt;l&#39;&lt;/i&gt;&lt;/span&gt;&lt;font face=&quot;Times New Roman&quot; style=&quot;font-style: italic ; font-size: 28px ; font-family: &amp;#34;times new roman&amp;#34;&quot;&gt;, если точки&amp;nbsp;&lt;/font&gt;&lt;span style=&quot;font-style: italic ; font-size: 28px ; font-family: &amp;#34;times new roman&amp;#34;&quot;&gt;O&lt;/span&gt;&lt;font face=&quot;Times New Roman&quot; style=&quot;font-style: italic ; font-size: 28px ; font-family: &amp;#34;times new roman&amp;#34;&quot;&gt;,&lt;/font&gt;&lt;font style=&quot;font-style: italic ; font-size: 28px ; font-family: &amp;#34;helvetica&amp;#34;&quot;&gt;&lt;font face=&quot;Times New Roman&quot;&gt; A&lt;/font&gt;&lt;span style=&quot;color: rgb(51 , 51 , 51) ; font-family: &amp;#34;times new roman&amp;#34; ; background-color: rgb(255 , 255 , 255)&quot;&gt;∈ &lt;i&gt;l&lt;/i&gt;&lt;/span&gt;&lt;/font&gt;&lt;font face=&quot;Times New Roman&quot; style=&quot;font-style: italic ; font-size: 28px ; font-family: &amp;#34;times new roman&amp;#34;&quot;&gt;&amp;nbsp;, A&#39;&amp;nbsp;&lt;/font&gt;&lt;span style=&quot;font-style: italic ; font-size: 28px ; color: rgb(51 , 51 , 51) ; font-family: &amp;#34;times new roman&amp;#34; ; background-color: rgb(255 , 255 , 255)&quot;&gt;∈&amp;nbsp;&lt;/span&gt;&lt;i style=&quot;font-size: 28px ; color: rgb(51 , 51 , 51) ; font-family: &amp;#34;times new roman&amp;#34;&quot;&gt;l&#39;&lt;/i&gt;&lt;span style=&quot;color: rgb(51 , 51 , 51) ; font-family: &amp;#34;u2000&amp;#34; ; font-size: 28px ; text-align: center ; background-color: rgb(255 , 255 , 255)&quot;&gt;&lt;i&gt;&lt;br&gt;&lt;/i&gt;&lt;/span&gt;&lt;font face=&quot;Times New Roman&quot; style=&quot;font-size: 28px&quot;&gt;&lt;div&gt;&lt;i&gt;располагаются на одной прямой и&amp;nbsp;&lt;/i&gt;&lt;span&gt;&amp;nbsp;&lt;/span&gt;&lt;/div&gt;&lt;/font&gt;" style="text;html=1;align=left;verticalAlign=middle;resizable=0;points=[];autosize=1;" parent="uJIFPMCv4TthrZqJF3ER-1" vertex="1">
          <mxGeometry x="50" y="115" width="930" height="70" as="geometry" />
        </mxCell>
        <mxCell id="AOTm9WpBNPdCGlpTdOO_-6" value="&lt;font face=&quot;times new roman&quot;&gt;&lt;span style=&quot;font-size: 28px&quot;&gt;&lt;i&gt;Свойства:&lt;br&gt;&lt;ul&gt;&lt;li&gt;&lt;font face=&quot;times new roman&quot;&gt;&lt;span style=&quot;font-size: 28px&quot;&gt;&lt;i&gt;взаимно-однозначность&lt;/i&gt;&lt;/span&gt;&lt;/font&gt;&lt;/li&gt;&lt;li&gt;&lt;font face=&quot;times new roman&quot;&gt;&lt;span style=&quot;font-size: 28px&quot;&gt;&lt;i&gt;существование неподвижной точки&lt;/i&gt;&lt;/span&gt;&lt;/font&gt;&lt;/li&gt;&lt;li&gt;&lt;font face=&quot;times new roman&quot;&gt;&lt;span style=&quot;font-size: 28px&quot;&gt;&lt;i&gt;сохранение двойного отношения&lt;/i&gt;&lt;/span&gt;&lt;/font&gt;&lt;/li&gt;&lt;/ul&gt;&lt;/i&gt;&lt;/span&gt;&lt;/font&gt;" style="text;html=1;align=left;verticalAlign=middle;resizable=0;points=[];autosize=1;" parent="uJIFPMCv4TthrZqJF3ER-1" vertex="1">
          <mxGeometry x="50" y="353" width="490" height="120" as="geometry" />
        </mxCell>
        <mxCell id="iNDLdJzTFSKuzjC-M5ey-0" value="&lt;font style=&quot;font-size: 28px&quot;&gt;$$\psi: A\rightarrow A&#39; $$&lt;/font&gt;" style="text;html=1;align=center;verticalAlign=middle;resizable=0;points=[];autosize=1;" parent="uJIFPMCv4TthrZqJF3ER-1" vertex="1">
          <mxGeometry x="425" y="250" width="320" height="20" as="geometry" />
        </mxCell>
      </root>
    </mxGraphModel>
  </diagram>
  <diagram id="OajB37qfS5taqp_0sIyL" name="p03">
    <mxGraphModel dx="1422" dy="757" grid="1" gridSize="10" guides="1" tooltips="1" connect="1" arrows="1" fold="1" page="1" pageScale="1" pageWidth="1169" pageHeight="827" math="0" shadow="0">
      <root>
        <mxCell id="ON2HA11NtkQmvKsnWKOJ-0" />
        <mxCell id="ON2HA11NtkQmvKsnWKOJ-1" parent="ON2HA11NtkQmvKsnWKOJ-0" />
        <mxCell id="Q6S6-TnNtL9UczXBH06b-0" value="&lt;font color=&quot;#006633&quot; face=&quot;garamond&quot;&gt;&lt;span style=&quot;font-size: 36px&quot;&gt;&lt;b&gt;Перспективные отображения прямых&lt;/b&gt;&lt;/span&gt;&lt;/font&gt;" style="text;html=1;align=left;verticalAlign=middle;whiteSpace=wrap;rounded=0;" parent="ON2HA11NtkQmvKsnWKOJ-1" vertex="1">
          <mxGeometry x="40" y="39" width="920" height="20" as="geometry" />
        </mxCell>
        <mxCell id="Q6S6-TnNtL9UczXBH06b-3" value="" style="endArrow=none;html=1;dashed=1;" parent="ON2HA11NtkQmvKsnWKOJ-1" edge="1">
          <mxGeometry width="50" height="50" relative="1" as="geometry">
            <mxPoint x="784" y="800" as="sourcePoint" />
            <mxPoint x="414" y="120" as="targetPoint" />
          </mxGeometry>
        </mxCell>
        <mxCell id="Q6S6-TnNtL9UczXBH06b-5" value="" style="endArrow=none;html=1;dashed=1;" parent="ON2HA11NtkQmvKsnWKOJ-1" source="Q6S6-TnNtL9UczXBH06b-14" edge="1">
          <mxGeometry width="50" height="50" relative="1" as="geometry">
            <mxPoint x="314" y="800" as="sourcePoint" />
            <mxPoint x="614" y="120" as="targetPoint" />
          </mxGeometry>
        </mxCell>
        <mxCell id="Q6S6-TnNtL9UczXBH06b-6" value="" style="endArrow=none;html=1;" parent="ON2HA11NtkQmvKsnWKOJ-1" edge="1">
          <mxGeometry width="50" height="50" relative="1" as="geometry">
            <mxPoint x="44" y="720" as="sourcePoint" />
            <mxPoint x="1124" y="720" as="targetPoint" />
          </mxGeometry>
        </mxCell>
        <mxCell id="Q6S6-TnNtL9UczXBH06b-7" value="&lt;font style=&quot;font-size: 18px&quot;&gt;A&lt;/font&gt;" style="text;html=1;align=center;verticalAlign=middle;resizable=0;points=[];autosize=1;" parent="ON2HA11NtkQmvKsnWKOJ-1" vertex="1">
          <mxGeometry x="304" y="730" width="30" height="20" as="geometry" />
        </mxCell>
        <mxCell id="Q6S6-TnNtL9UczXBH06b-9" value="&lt;font style=&quot;font-size: 18px&quot;&gt;B&lt;/font&gt;" style="text;html=1;align=center;verticalAlign=middle;resizable=0;points=[];autosize=1;" parent="ON2HA11NtkQmvKsnWKOJ-1" vertex="1">
          <mxGeometry x="539" y="730" width="30" height="20" as="geometry" />
        </mxCell>
        <mxCell id="Q6S6-TnNtL9UczXBH06b-10" value="&lt;font style=&quot;font-size: 18px&quot;&gt;C&lt;/font&gt;" style="text;html=1;align=center;verticalAlign=middle;resizable=0;points=[];autosize=1;" parent="ON2HA11NtkQmvKsnWKOJ-1" vertex="1">
          <mxGeometry x="704" y="730" width="30" height="20" as="geometry" />
        </mxCell>
        <mxCell id="Q6S6-TnNtL9UczXBH06b-11" value="" style="ellipse;whiteSpace=wrap;html=1;aspect=fixed;fillColor=#7EA6E0;" parent="ON2HA11NtkQmvKsnWKOJ-1" vertex="1">
          <mxGeometry x="738" y="717" width="5" height="5" as="geometry" />
        </mxCell>
        <mxCell id="Q6S6-TnNtL9UczXBH06b-13" value="&lt;font style=&quot;font-size: 18px&quot;&gt;O&lt;/font&gt;" style="text;html=1;align=center;verticalAlign=middle;resizable=0;points=[];autosize=1;" parent="ON2HA11NtkQmvKsnWKOJ-1" vertex="1">
          <mxGeometry x="484" y="302" width="30" height="20" as="geometry" />
        </mxCell>
        <mxCell id="Q6S6-TnNtL9UczXBH06b-14" value="" style="ellipse;whiteSpace=wrap;html=1;aspect=fixed;fillColor=#7EA6E0;" parent="ON2HA11NtkQmvKsnWKOJ-1" vertex="1">
          <mxGeometry x="345" y="718" width="5" height="5" as="geometry" />
        </mxCell>
        <mxCell id="Q6S6-TnNtL9UczXBH06b-15" value="" style="endArrow=none;html=1;dashed=1;" parent="ON2HA11NtkQmvKsnWKOJ-1" target="Q6S6-TnNtL9UczXBH06b-14" edge="1">
          <mxGeometry width="50" height="50" relative="1" as="geometry">
            <mxPoint x="314" y="800" as="sourcePoint" />
            <mxPoint x="614" y="120" as="targetPoint" />
          </mxGeometry>
        </mxCell>
        <mxCell id="Q6S6-TnNtL9UczXBH06b-28" value="" style="endArrow=none;html=1;strokeColor=#000000;strokeWidth=1;" parent="ON2HA11NtkQmvKsnWKOJ-1" edge="1">
          <mxGeometry width="50" height="50" relative="1" as="geometry">
            <mxPoint x="210" y="150" as="sourcePoint" />
            <mxPoint x="900" y="804" as="targetPoint" />
          </mxGeometry>
        </mxCell>
        <mxCell id="Q6S6-TnNtL9UczXBH06b-31" value="" style="ellipse;whiteSpace=wrap;html=1;aspect=fixed;fillColor=#7EA6E0;" parent="ON2HA11NtkQmvKsnWKOJ-1" vertex="1">
          <mxGeometry x="482" y="407" width="5" height="5" as="geometry" />
        </mxCell>
        <mxCell id="Q6S6-TnNtL9UczXBH06b-32" value="" style="ellipse;whiteSpace=wrap;html=1;aspect=fixed;fillColor=#7EA6E0;" parent="ON2HA11NtkQmvKsnWKOJ-1" vertex="1">
          <mxGeometry x="663" y="580" width="5" height="5" as="geometry" />
        </mxCell>
        <mxCell id="Q6S6-TnNtL9UczXBH06b-33" value="&lt;font style=&quot;font-size: 18px&quot;&gt;C&#39;&lt;/font&gt;" style="text;html=1;align=center;verticalAlign=middle;resizable=0;points=[];autosize=1;" parent="ON2HA11NtkQmvKsnWKOJ-1" vertex="1">
          <mxGeometry x="670" y="560" width="30" height="20" as="geometry" />
        </mxCell>
        <mxCell id="Q6S6-TnNtL9UczXBH06b-34" value="&lt;font style=&quot;font-size: 18px&quot;&gt;B&#39;&lt;/font&gt;" style="text;html=1;align=center;verticalAlign=middle;resizable=0;points=[];autosize=1;" parent="ON2HA11NtkQmvKsnWKOJ-1" vertex="1">
          <mxGeometry x="508.5" y="460" width="30" height="20" as="geometry" />
        </mxCell>
        <mxCell id="Q6S6-TnNtL9UczXBH06b-35" value="&lt;font style=&quot;font-size: 18px&quot;&gt;A&#39;&lt;/font&gt;" style="text;html=1;align=center;verticalAlign=middle;resizable=0;points=[];autosize=1;" parent="ON2HA11NtkQmvKsnWKOJ-1" vertex="1">
          <mxGeometry x="435" y="404" width="30" height="20" as="geometry" />
        </mxCell>
        <mxCell id="Q6S6-TnNtL9UczXBH06b-8" value="" style="ellipse;whiteSpace=wrap;html=1;aspect=fixed;fillColor=#7EA6E0;" parent="ON2HA11NtkQmvKsnWKOJ-1" vertex="1">
          <mxGeometry x="563" y="718" width="5" height="5" as="geometry" />
        </mxCell>
        <mxCell id="Q6S6-TnNtL9UczXBH06b-36" value="" style="endArrow=none;html=1;strokeWidth=1;dashed=1;" parent="ON2HA11NtkQmvKsnWKOJ-1" edge="1">
          <mxGeometry width="50" height="50" relative="1" as="geometry">
            <mxPoint x="572" y="790" as="sourcePoint" />
            <mxPoint x="502" y="120" as="targetPoint" />
          </mxGeometry>
        </mxCell>
        <mxCell id="Q6S6-TnNtL9UczXBH06b-29" value="" style="ellipse;whiteSpace=wrap;html=1;aspect=fixed;fillColor=#7EA6E0;" parent="ON2HA11NtkQmvKsnWKOJ-1" vertex="1">
          <mxGeometry x="535.5" y="459" width="5" height="5" as="geometry" />
        </mxCell>
        <mxCell id="Q6S6-TnNtL9UczXBH06b-12" value="" style="ellipse;whiteSpace=wrap;html=1;aspect=fixed;fillColor=#7EA6E0;" parent="ON2HA11NtkQmvKsnWKOJ-1" vertex="1">
          <mxGeometry x="521" y="318" width="5" height="5" as="geometry" />
        </mxCell>
        <mxCell id="Q6S6-TnNtL9UczXBH06b-38" value="" style="endArrow=none;html=1;strokeWidth=1;dashed=1;" parent="ON2HA11NtkQmvKsnWKOJ-1" edge="1">
          <mxGeometry width="50" height="50" relative="1" as="geometry">
            <mxPoint x="868" y="800" as="sourcePoint" />
            <mxPoint x="380" y="120" as="targetPoint" />
          </mxGeometry>
        </mxCell>
        <mxCell id="Q6S6-TnNtL9UczXBH06b-37" value="" style="ellipse;whiteSpace=wrap;html=1;aspect=fixed;fillColor=#7EA6E0;" parent="ON2HA11NtkQmvKsnWKOJ-1" vertex="1">
          <mxGeometry x="809" y="717" width="5" height="5" as="geometry" />
        </mxCell>
        <mxCell id="Q6S6-TnNtL9UczXBH06b-39" value="&lt;font style=&quot;font-size: 18px&quot;&gt;D&lt;/font&gt;" style="text;html=1;align=center;verticalAlign=middle;resizable=0;points=[];autosize=1;" parent="ON2HA11NtkQmvKsnWKOJ-1" vertex="1">
          <mxGeometry x="809" y="690" width="30" height="20" as="geometry" />
        </mxCell>
        <mxCell id="Q6S6-TnNtL9UczXBH06b-40" value="&lt;font style=&quot;font-size: 18px&quot;&gt;D&#39;&lt;/font&gt;" style="text;html=1;align=center;verticalAlign=middle;resizable=0;points=[];autosize=1;" parent="ON2HA11NtkQmvKsnWKOJ-1" vertex="1">
          <mxGeometry x="784" y="730" width="30" height="20" as="geometry" />
        </mxCell>
        <mxCell id="6LQiTudkKrv5bVh54Gs0-0" value="&lt;font face=&quot;Times New Roman&quot; size=&quot;1&quot;&gt;&lt;i style=&quot;font-size: 28px&quot;&gt;l&lt;/i&gt;&lt;/font&gt;" style="text;html=1;align=center;verticalAlign=middle;resizable=0;points=[];autosize=1;" parent="ON2HA11NtkQmvKsnWKOJ-1" vertex="1">
          <mxGeometry x="1080" y="685" width="20" height="30" as="geometry" />
        </mxCell>
        <mxCell id="6LQiTudkKrv5bVh54Gs0-1" value="&lt;font face=&quot;Times New Roman&quot; size=&quot;1&quot;&gt;&lt;i style=&quot;font-size: 28px&quot;&gt;l&#39;&lt;/i&gt;&lt;/font&gt;" style="text;html=1;align=center;verticalAlign=middle;resizable=0;points=[];autosize=1;" parent="ON2HA11NtkQmvKsnWKOJ-1" vertex="1">
          <mxGeometry x="895" y="770" width="30" height="30" as="geometry" />
        </mxCell>
      </root>
    </mxGraphModel>
  </diagram>
  <diagram name="p04" id="rcrqGndtrFWcOBGW60qz">
    <mxGraphModel dx="1422" dy="757" grid="1" gridSize="10" guides="1" tooltips="1" connect="1" arrows="1" fold="1" page="1" pageScale="1" pageWidth="1169" pageHeight="827" math="1" shadow="0">
      <root>
        <mxCell id="SPBcmTqretac-UOiQq1--0" />
        <mxCell id="SPBcmTqretac-UOiQq1--1" parent="SPBcmTqretac-UOiQq1--0" />
        <mxCell id="SPBcmTqretac-UOiQq1--2" value="&lt;font color=&quot;#006633&quot; face=&quot;garamond&quot;&gt;&lt;span style=&quot;font-size: 36px&quot;&gt;&lt;b&gt;Свойства проективных отображений прямых&lt;/b&gt;&lt;/span&gt;&lt;/font&gt;" style="text;html=1;align=left;verticalAlign=middle;whiteSpace=wrap;rounded=0;" parent="SPBcmTqretac-UOiQq1--1" vertex="1">
          <mxGeometry x="40" y="39" width="920" height="20" as="geometry" />
        </mxCell>
        <mxCell id="SPBcmTqretac-UOiQq1--3" value="&lt;div&gt;&lt;/div&gt;&lt;b style=&quot;font-size: 28px ; font-family: &amp;#34;times new roman&amp;#34;&quot;&gt;Теор.&lt;/b&gt;&lt;span style=&quot;font-size: 28px ; font-family: &amp;#34;times new roman&amp;#34;&quot;&gt;&amp;nbsp;&lt;i&gt;Пусть A, B, C -&lt;/i&gt; &lt;i&gt;различные точки на прямой&amp;nbsp;&lt;/i&gt;&lt;/span&gt;&lt;i style=&quot;font-size: 28px ; font-family: &amp;#34;times new roman&amp;#34;&quot;&gt;l,&amp;nbsp; A&#39;, B&#39;, C&#39; - различные точки прямой&amp;nbsp;&lt;/i&gt;&lt;i style=&quot;font-family: &amp;#34;times new roman&amp;#34; ; font-size: 28px&quot;&gt;l&#39;&amp;nbsp;&lt;br&gt;&lt;/i&gt;&lt;i style=&quot;font-size: 28px ; font-family: &amp;#34;times new roman&amp;#34;&quot;&gt;проективной плоскости. Тогда существует единственное проективное отображение&lt;/i&gt;&lt;span style=&quot;color: rgb(51 , 51 , 51) ; font-family: &amp;#34;u0000&amp;#34; ; font-size: 28px ; text-align: center ; background-color: rgb(255 , 255 , 255)&quot;&gt;&lt;br&gt;&lt;/span&gt;" style="text;html=1;align=left;verticalAlign=middle;resizable=0;points=[];autosize=1;" parent="SPBcmTqretac-UOiQq1--1" vertex="1">
          <mxGeometry x="40" y="230" width="1090" height="40" as="geometry" />
        </mxCell>
        <mxCell id="SPBcmTqretac-UOiQq1--5" value="&lt;font style=&quot;font-size: 28px&quot;&gt;$$\varphi: \begin{matrix} A\rightarrow A&#39;&amp;nbsp;&lt;br&gt;\\ B\rightarrow B&#39;&amp;nbsp;\\ C\rightarrow C&#39;&amp;nbsp;\end{matrix}&amp;nbsp;&amp;nbsp;$$&lt;/font&gt;" style="text;html=1;align=center;verticalAlign=middle;resizable=0;points=[];autosize=1;" parent="SPBcmTqretac-UOiQq1--1" vertex="1">
          <mxGeometry x="255" y="360" width="640" height="40" as="geometry" />
        </mxCell>
        <mxCell id="KdyPo4RgCAobkMLcw3EY-0" value="&lt;div&gt;&lt;/div&gt;&lt;i style=&quot;font-size: 28px ; font-family: &amp;#34;times new roman&amp;#34;&quot;&gt;Суперпозиция проективных отображений - также проективное отображение&lt;/i&gt;" style="text;html=1;align=left;verticalAlign=middle;resizable=0;points=[];autosize=1;" vertex="1" parent="SPBcmTqretac-UOiQq1--1">
          <mxGeometry x="40" y="110" width="970" height="20" as="geometry" />
        </mxCell>
      </root>
    </mxGraphModel>
  </diagram>
  <diagram name="p05" id="Nz_8s6U2HYy5guTOKwui">
    <mxGraphModel dx="1422" dy="757" grid="1" gridSize="10" guides="1" tooltips="1" connect="1" arrows="1" fold="1" page="1" pageScale="1" pageWidth="1169" pageHeight="827" math="1" shadow="0">
      <root>
        <mxCell id="WaOKopwWrd6m0TGSp-WL-0" />
        <mxCell id="WaOKopwWrd6m0TGSp-WL-1" parent="WaOKopwWrd6m0TGSp-WL-0" />
        <mxCell id="WaOKopwWrd6m0TGSp-WL-2" value="&lt;font color=&quot;#006633&quot; face=&quot;garamond&quot;&gt;&lt;span style=&quot;font-size: 36px&quot;&gt;&lt;b&gt;Свойства проективных отображений&lt;/b&gt;&lt;/span&gt;&lt;/font&gt;" style="text;html=1;align=left;verticalAlign=middle;whiteSpace=wrap;rounded=0;" parent="WaOKopwWrd6m0TGSp-WL-1" vertex="1">
          <mxGeometry x="40" y="39" width="920" height="20" as="geometry" />
        </mxCell>
        <mxCell id="WaOKopwWrd6m0TGSp-WL-3" value="&lt;div&gt;&lt;/div&gt;&lt;font style=&quot;font-size: 28px&quot;&gt;&lt;b style=&quot;font-family: &amp;#34;times new roman&amp;#34;&quot;&gt;Д-во.&lt;/b&gt;&lt;span style=&quot;font-family: &amp;#34;times new roman&amp;#34;&quot;&gt;&amp;nbsp;&lt;i&gt;Единственность: &lt;/i&gt;]&amp;nbsp;&lt;/span&gt;&lt;span style=&quot;text-align: center&quot;&gt;&lt;font style=&quot;font-size: 28px&quot;&gt;&lt;font color=&quot;#333333&quot; face=&quot;u2000&quot; style=&quot;font-size: 28px&quot;&gt;&lt;span style=&quot;background-color: rgb(255 , 255 , 255)&quot;&gt;∃&amp;nbsp;&lt;/span&gt;&lt;/font&gt;&lt;font face=&quot;times new roman&quot; style=&quot;font-size: 28px&quot;&gt;&lt;span style=&quot;background-color: rgb(248 , 249 , 250)&quot;&gt;&amp;nbsp;&lt;/span&gt;&lt;/font&gt;&lt;/font&gt;&lt;/span&gt;&lt;span style=&quot;color: rgb(51 , 51 , 51) ; font-family: &amp;#34;u0000&amp;#34; ; text-align: center ; background-color: rgb(255 , 255 , 255)&quot;&gt;&lt;font style=&quot;font-size: 28px&quot;&gt;&lt;i&gt;φ&lt;sub&gt;1&lt;/sub&gt; и&amp;nbsp;&lt;/i&gt;&lt;/font&gt;&lt;/span&gt;&lt;i style=&quot;color: rgb(51 , 51 , 51) ; font-family: &amp;#34;u0000&amp;#34; ; text-align: center ; background-color: rgb(255 , 255 , 255)&quot;&gt;φ&lt;sub&gt;2&lt;/sub&gt; , &lt;/i&gt;&lt;span style=&quot;color: rgb(51 , 51 , 51) ; font-family: &amp;#34;u0000&amp;#34; ; text-align: center ; background-color: rgb(255 , 255 , 255)&quot;&gt;]&lt;/span&gt;&lt;i style=&quot;color: rgb(51 , 51 , 51) ; font-family: &amp;#34;u0000&amp;#34; ; text-align: center ; background-color: rgb(255 , 255 , 255)&quot;&gt; M&amp;nbsp;&lt;/i&gt;&lt;span style=&quot;color: rgb(51 , 51 , 51) ; font-family: &amp;#34;u2000&amp;#34; ; text-align: center ; background-color: rgb(255 , 255 , 255)&quot;&gt;&lt;font style=&quot;font-size: 28px&quot;&gt;∈ &lt;i&gt;l, M&#39;&lt;sub&gt;1&lt;/sub&gt; =&amp;nbsp;&lt;/i&gt;&lt;/font&gt;&lt;/span&gt;&lt;i style=&quot;color: rgb(51 , 51 , 51) ; font-family: &amp;#34;u0000&amp;#34; ; text-align: center ; background-color: rgb(255 , 255 , 255)&quot;&gt;φ&lt;sub&gt;1&lt;/sub&gt;(M),&amp;nbsp;&lt;/i&gt;&lt;span style=&quot;color: rgb(51 , 51 , 51) ; font-family: &amp;#34;u2000&amp;#34; ; text-align: center ; background-color: rgb(255 , 255 , 255)&quot;&gt;&lt;font style=&quot;font-size: 28px&quot;&gt;&lt;i&gt;M&#39;&lt;sub&gt;2&lt;/sub&gt;&amp;nbsp;=&amp;nbsp;&lt;/i&gt;&lt;/font&gt;&lt;/span&gt;&lt;i style=&quot;color: rgb(51 , 51 , 51) ; font-family: &amp;#34;u0000&amp;#34; ; text-align: center ; background-color: rgb(255 , 255 , 255)&quot;&gt;φ&lt;/i&gt;&lt;i style=&quot;color: rgb(51 , 51 , 51) ; font-family: &amp;#34;u0000&amp;#34; ; text-align: center ; background-color: rgb(255 , 255 , 255)&quot;&gt;&lt;sub&gt;2&lt;/sub&gt;(M)&amp;nbsp;&lt;/i&gt;&lt;/font&gt;&lt;span style=&quot;color: rgb(51 , 51 , 51) ; font-family: &amp;#34;u2000&amp;#34; ; text-align: center ; background-color: rgb(255 , 255 , 255) ; font-size: 28px&quot;&gt;&lt;font style=&quot;font-size: 28px&quot;&gt;&lt;span style=&quot;font-size: 28px&quot;&gt;⇒ &lt;/span&gt;&lt;font style=&quot;font-size: 28px&quot;&gt;&lt;br&gt;&lt;i&gt;из&amp;nbsp;&lt;/i&gt;&lt;/font&gt;&lt;/font&gt;&lt;/span&gt;&lt;i&gt;&lt;font style=&quot;font-size: 28px&quot;&gt;&lt;span style=&quot;color: rgb(51 , 51 , 51) ; font-family: &amp;#34;u2000&amp;#34; ; text-align: center ; background-color: rgb(255 , 255 , 255)&quot;&gt;(ABCM&lt;/span&gt;&lt;/font&gt;&lt;span style=&quot;color: rgb(51 , 51 , 51) ; font-family: &amp;#34;u2000&amp;#34; ; text-align: center ; background-color: rgb(255 , 255 , 255) ; font-size: 28px&quot;&gt;) =&amp;nbsp;&lt;/span&gt;&lt;span style=&quot;color: rgb(51 , 51 , 51) ; font-family: &amp;#34;u2000&amp;#34; ; text-align: center ; background-color: rgb(255 , 255 , 255) ; font-size: 28px&quot;&gt;&lt;font style=&quot;font-size: 28px&quot;&gt;&lt;font style=&quot;font-size: 28px&quot;&gt;(A&#39;B&#39;C&#39;M&#39;&lt;sub&gt;1&lt;/sub&gt;) =&amp;nbsp;&lt;/font&gt;&lt;/font&gt;&lt;/span&gt;&lt;font style=&quot;font-size: 28px&quot;&gt;&lt;span style=&quot;color: rgb(51 , 51 , 51) ; font-family: &amp;#34;u2000&amp;#34; ; text-align: center ; background-color: rgb(255 , 255 , 255)&quot;&gt;(A&#39;B&#39;C&#39;M&#39;&lt;/span&gt;&lt;span style=&quot;color: rgb(51 , 51 , 51) ; font-family: &amp;#34;u2000&amp;#34; ; text-align: center ; background-color: rgb(255 , 255 , 255)&quot;&gt;&lt;sub&gt;2&lt;/sub&gt;&lt;/span&gt;&lt;/font&gt;&lt;/i&gt;&lt;span style=&quot;color: rgb(51 , 51 , 51) ; font-family: &amp;#34;u2000&amp;#34; ; text-align: center ; background-color: rgb(255 , 255 , 255) ; font-size: 28px&quot;&gt;&lt;font style=&quot;font-size: 28px&quot;&gt;&lt;i&gt;)&lt;/i&gt;&lt;/font&gt;&lt;span style=&quot;font-size: 28px&quot;&gt;&amp;nbsp;&lt;i&gt;получаем&amp;nbsp;&lt;/i&gt;&lt;/span&gt;&lt;/span&gt;&lt;i style=&quot;color: rgb(51 , 51 , 51) ; font-family: &amp;#34;u2000&amp;#34; ; font-size: 28px ; text-align: center ; background-color: rgb(255 , 255 , 255)&quot;&gt;M&#39;&lt;sub&gt;1&lt;/sub&gt;&amp;nbsp;=&amp;nbsp;&lt;/i&gt;&lt;i style=&quot;color: rgb(51 , 51 , 51) ; font-family: &amp;#34;u2000&amp;#34; ; font-size: 28px ; text-align: center ; background-color: rgb(255 , 255 , 255)&quot;&gt;M&#39;&lt;sub&gt;2&lt;br&gt;&lt;/sub&gt;&lt;/i&gt;&lt;span style=&quot;color: rgb(51 , 51 , 51) ; font-family: &amp;#34;u0000&amp;#34; ; font-size: 28px ; text-align: center ; background-color: rgb(255 , 255 , 255)&quot;&gt;&lt;i&gt;&lt;br&gt;Существование:&amp;nbsp;&lt;/i&gt;&lt;br&gt;&lt;/span&gt;" style="text;html=1;align=left;verticalAlign=middle;resizable=0;points=[];autosize=1;" parent="WaOKopwWrd6m0TGSp-WL-1" vertex="1">
          <mxGeometry x="50" y="105" width="890" height="90" as="geometry" />
        </mxCell>
      </root>
    </mxGraphModel>
  </diagram>
  <diagram id="HHVidsmUwzjsRozAI8lB" name="p06">
    <mxGraphModel dx="1673" dy="891" grid="1" gridSize="10" guides="1" tooltips="1" connect="1" arrows="1" fold="1" page="1" pageScale="1" pageWidth="1169" pageHeight="827" math="0" shadow="0">
      <root>
        <mxCell id="dCOYDyRgkQMX8UILQ8l--0" />
        <mxCell id="dCOYDyRgkQMX8UILQ8l--1" parent="dCOYDyRgkQMX8UILQ8l--0" />
        <mxCell id="cUMaaJzzI1bp_72zzjhb-0" value="&lt;font color=&quot;#006633&quot; face=&quot;garamond&quot;&gt;&lt;span style=&quot;font-size: 36px&quot;&gt;&lt;b&gt;Проективные отображения плоскости&lt;/b&gt;&lt;/span&gt;&lt;/font&gt;" style="text;html=1;align=left;verticalAlign=middle;whiteSpace=wrap;rounded=0;" vertex="1" parent="dCOYDyRgkQMX8UILQ8l--1">
          <mxGeometry x="40" y="39" width="920" height="20" as="geometry" />
        </mxCell>
        <mxCell id="cUMaaJzzI1bp_72zzjhb-1" value="&lt;font face=&quot;Times New Roman&quot; style=&quot;font-size: 28px&quot;&gt;&lt;i&gt;Точки &amp;lt;==&amp;gt; точки&lt;br&gt;Прямые &amp;lt;==&amp;gt; прямые&lt;/i&gt;&lt;/font&gt;" style="text;html=1;align=center;verticalAlign=middle;resizable=0;points=[];autosize=1;" vertex="1" parent="dCOYDyRgkQMX8UILQ8l--1">
          <mxGeometry x="107" y="340" width="290" height="40" as="geometry" />
        </mxCell>
        <mxCell id="cUMaaJzzI1bp_72zzjhb-2" value="&lt;font face=&quot;Times New Roman&quot; style=&quot;font-size: 28px&quot;&gt;&lt;i&gt;Точки &amp;lt;==&amp;gt; прямые&lt;br&gt;Прямые &amp;lt;==&amp;gt; точки&lt;/i&gt;&lt;/font&gt;" style="text;html=1;align=center;verticalAlign=middle;resizable=0;points=[];autosize=1;" vertex="1" parent="dCOYDyRgkQMX8UILQ8l--1">
          <mxGeometry x="745" y="340" width="280" height="40" as="geometry" />
        </mxCell>
        <mxCell id="y0hAmP5XkUiFJ9w4xcNF-0" value="&lt;div&gt;&lt;/div&gt;&lt;b style=&quot;font-size: 28px ; font-family: &amp;#34;times new roman&amp;#34;&quot;&gt;Опр.&lt;/b&gt;&lt;span style=&quot;font-size: 28px ; font-family: &amp;#34;times new roman&amp;#34;&quot;&gt;&amp;nbsp;&lt;/span&gt;&lt;i style=&quot;font-size: 28px ; font-family: &amp;#34;times new roman&amp;#34;&quot;&gt;Отображение&amp;nbsp;&lt;/i&gt;&lt;span style=&quot;color: rgb(51 , 51 , 51) ; font-family: &amp;#34;u0000&amp;#34; ; font-size: 28px ; text-align: center ; background-color: rgb(255 , 255 , 255)&quot;&gt;&lt;i&gt;ψ&lt;/i&gt;&amp;nbsp;&lt;/span&gt;&lt;i style=&quot;font-size: 28px&quot;&gt;&lt;font face=&quot;times new roman&quot;&gt;множества элементов проективной плоскости на себя&amp;nbsp;&lt;br&gt;&lt;/font&gt;&lt;/i&gt;&lt;i style=&quot;font-size: 28px ; font-family: &amp;#34;times new roman&amp;#34;&quot;&gt;называется&amp;nbsp;&lt;/i&gt;&lt;font face=&quot;Times New Roman&quot; style=&quot;font-size: 28px&quot;&gt;&lt;i&gt;&lt;font face=&quot;Times New Roman&quot;&gt;&lt;i&gt;проективным, если оно является взаимно-однозначным и сохраняет &lt;br&gt;свойства инцидентности и двойного отношения&amp;nbsp;&lt;/i&gt;&lt;/font&gt;&lt;/i&gt;&lt;/font&gt;" style="text;html=1;align=left;verticalAlign=middle;resizable=0;points=[];autosize=1;" vertex="1" parent="dCOYDyRgkQMX8UILQ8l--1">
          <mxGeometry x="50" y="120" width="980" height="60" as="geometry" />
        </mxCell>
        <mxCell id="IKi0XMyBoPubwYhylIfw-0" value="&lt;font face=&quot;Times New Roman&quot; style=&quot;font-size: 28px&quot;&gt;&lt;i&gt;Коллинеарные точки&amp;nbsp;&lt;br&gt;&lt;br&gt;&lt;/i&gt;&lt;/font&gt;" style="text;html=1;align=center;verticalAlign=middle;resizable=0;points=[];autosize=1;" vertex="1" parent="dCOYDyRgkQMX8UILQ8l--1">
          <mxGeometry x="117" y="440" width="270" height="40" as="geometry" />
        </mxCell>
        <mxCell id="IKi0XMyBoPubwYhylIfw-1" value="&lt;font face=&quot;Times New Roman&quot; style=&quot;font-size: 28px&quot;&gt;&lt;i&gt;Коллинеарные точки&amp;nbsp;&lt;br&gt;&lt;br&gt;&lt;/i&gt;&lt;/font&gt;" style="text;html=1;align=center;verticalAlign=middle;resizable=0;points=[];autosize=1;" vertex="1" parent="dCOYDyRgkQMX8UILQ8l--1">
          <mxGeometry x="117" y="580" width="270" height="40" as="geometry" />
        </mxCell>
        <mxCell id="IKi0XMyBoPubwYhylIfw-2" value="&lt;font face=&quot;Times New Roman&quot; style=&quot;font-size: 28px&quot;&gt;&lt;i&gt;&amp;lt;==&amp;gt;&lt;br&gt;&lt;/i&gt;&lt;/font&gt;" style="text;html=1;align=center;verticalAlign=middle;resizable=0;points=[];autosize=1;rotation=90;" vertex="1" parent="dCOYDyRgkQMX8UILQ8l--1">
          <mxGeometry x="207" y="520" width="90" height="20" as="geometry" />
        </mxCell>
        <mxCell id="IKi0XMyBoPubwYhylIfw-3" value="&lt;font face=&quot;Times New Roman&quot; style=&quot;font-size: 28px&quot;&gt;&lt;i&gt;Коллинеарные точки&amp;nbsp;&lt;br&gt;&lt;br&gt;&lt;/i&gt;&lt;/font&gt;" style="text;html=1;align=center;verticalAlign=middle;resizable=0;points=[];autosize=1;" vertex="1" parent="dCOYDyRgkQMX8UILQ8l--1">
          <mxGeometry x="745" y="440" width="270" height="40" as="geometry" />
        </mxCell>
        <mxCell id="IKi0XMyBoPubwYhylIfw-4" value="&lt;font face=&quot;Times New Roman&quot; style=&quot;font-size: 28px&quot;&gt;&lt;i&gt;&amp;lt;==&amp;gt;&lt;br&gt;&lt;/i&gt;&lt;/font&gt;" style="text;html=1;align=center;verticalAlign=middle;resizable=0;points=[];autosize=1;rotation=90;" vertex="1" parent="dCOYDyRgkQMX8UILQ8l--1">
          <mxGeometry x="835" y="520" width="90" height="20" as="geometry" />
        </mxCell>
        <mxCell id="IKi0XMyBoPubwYhylIfw-5" value="&lt;font face=&quot;Times New Roman&quot; style=&quot;font-size: 28px&quot;&gt;&lt;i&gt;Прямые из одного пучка&lt;br&gt;&lt;/i&gt;&lt;/font&gt;" style="text;html=1;align=center;verticalAlign=middle;resizable=0;points=[];autosize=1;" vertex="1" parent="dCOYDyRgkQMX8UILQ8l--1">
          <mxGeometry x="730" y="580" width="300" height="20" as="geometry" />
        </mxCell>
      </root>
    </mxGraphModel>
  </diagram>
  <diagram name="p07" id="NnmPaI4NYrRI8oHxBw8H">
    <mxGraphModel dx="1673" dy="891" grid="1" gridSize="10" guides="1" tooltips="1" connect="1" arrows="1" fold="1" page="1" pageScale="1" pageWidth="1169" pageHeight="827" math="0" shadow="0">
      <root>
        <mxCell id="oVWzaf4ahUai5T_qGQml-0" />
        <mxCell id="oVWzaf4ahUai5T_qGQml-1" parent="oVWzaf4ahUai5T_qGQml-0" />
        <mxCell id="oVWzaf4ahUai5T_qGQml-2" value="&lt;font color=&quot;#006633&quot; face=&quot;garamond&quot;&gt;&lt;span style=&quot;font-size: 36px&quot;&gt;&lt;b&gt;Свойства проективных отображений плоскости&lt;/b&gt;&lt;/span&gt;&lt;/font&gt;" style="text;html=1;align=left;verticalAlign=middle;whiteSpace=wrap;rounded=0;" vertex="1" parent="oVWzaf4ahUai5T_qGQml-1">
          <mxGeometry x="40" y="39" width="920" height="20" as="geometry" />
        </mxCell>
        <mxCell id="n_DQGZyml21vEd85zqVt-0" value="&lt;div&gt;&lt;/div&gt;&lt;b style=&quot;font-size: 28px ; font-family: &amp;#34;times new roman&amp;#34;&quot;&gt;Теор.&lt;/b&gt;&lt;span style=&quot;font-size: 28px ; font-family: &amp;#34;times new roman&amp;#34;&quot;&gt;&amp;nbsp;&lt;i&gt;Пусть A, B, C, D&amp;nbsp; &amp;nbsp;и&amp;nbsp; &amp;nbsp;&lt;/i&gt;&lt;/span&gt;&lt;i style=&quot;font-size: 28px ; font-family: &amp;#34;times new roman&amp;#34;&quot;&gt;A&#39;, B&#39;, C&#39;, D&#39;&amp;nbsp;&lt;/i&gt;&lt;span style=&quot;font-size: 28px ; font-family: &amp;#34;times new roman&amp;#34;&quot;&gt;&lt;i&gt;-&lt;/i&gt;&amp;nbsp;&lt;i&gt;четверки различных точек&amp;nbsp;&lt;/i&gt;&lt;/span&gt;&lt;i style=&quot;font-size: 28px ; font-family: &amp;#34;times new roman&amp;#34;&quot;&gt;проективной &lt;br&gt;плоскости,&amp;nbsp;при этом никакая тройка точек из этих четверок &lt;br&gt;не лежит на одной прямой&amp;nbsp;соответственно.&lt;br&gt;Тогда существует единственное проективное отображение,&amp;nbsp;&lt;br&gt;&lt;/i&gt;&lt;span style=&quot;color: rgb(51 , 51 , 51) ; font-family: &amp;#34;u0000&amp;#34; ; font-size: 28px ; text-align: center ; background-color: rgb(255 , 255 , 255)&quot;&gt;&lt;i&gt;переводящее первую четверку точек во вторую.&lt;/i&gt;&lt;br&gt;&lt;/span&gt;" style="text;html=1;align=left;verticalAlign=middle;resizable=0;points=[];autosize=1;" vertex="1" parent="oVWzaf4ahUai5T_qGQml-1">
          <mxGeometry x="40" y="300" width="990" height="100" as="geometry" />
        </mxCell>
        <mxCell id="n_DQGZyml21vEd85zqVt-1" value="&lt;div&gt;&lt;/div&gt;&lt;b style=&quot;font-size: 28px ; font-family: &amp;#34;times new roman&amp;#34;&quot;&gt;Следствие.&lt;/b&gt;&lt;span style=&quot;font-size: 28px ; font-family: &amp;#34;times new roman&amp;#34;&quot;&gt;&amp;nbsp;&lt;i&gt;Для любой прямой существует отображение, переводящее ее в несобственную&lt;/i&gt;&lt;/span&gt;&lt;span style=&quot;color: rgb(51 , 51 , 51) ; font-family: &amp;#34;u0000&amp;#34; ; font-size: 28px ; text-align: center ; background-color: rgb(255 , 255 , 255)&quot;&gt;&lt;i&gt;.&lt;/i&gt;&lt;br&gt;&lt;/span&gt;" style="text;html=1;align=left;verticalAlign=middle;resizable=0;points=[];autosize=1;" vertex="1" parent="oVWzaf4ahUai5T_qGQml-1">
          <mxGeometry x="40" y="620" width="1120" height="20" as="geometry" />
        </mxCell>
      </root>
    </mxGraphModel>
  </diagram>
</mxfile>
